# xmcd
#
# Track frame offsets: 
#        183
#        11403
#        21843
#        33545
#        44003
#        56515
#        67368
#        80790
#        91990
#        105798
#        116785
#        128368
#        140720
#        151180
#        160273
#        175705
#
# Disc length: 2499 seconds
#
# Revision: 7
# Processed by: cddbd v1.5.2PL0 Copyright (c) Steve Scherf et al.
# Submitted via: ExactAudioCopyFreeDBPlugin 1.0
#
DISCID=d109c110
DTITLE=Eric Clapton - Eric Clapton And The Yardbirds
DYEAR=1992
DGENRE=Blues
TTITLE0=For Your Love
TTITLE1=Putty In Your Hands
TTITLE2=Got To Hurry
TTITLE3=I Wish You Would
TTITLE4=Good Morning Little Schoolgirl
TTITLE5=Evil Hearted You
TTITLE6=Still I'm Sad
TTITLE7=Heart Full Of Soul
TTITLE8=Jeff's Blues
TTITLE9=Shapes Of Things
TTITLE10=Steeled Blues
TTITLE11=Stroll On
TTITLE12=A Certain Girl
TTITLE13=I Ain't Got You
TTITLE14=Train Kept A Rolling
TTITLE15=I'm A Man
EXTD=ID3G: 0
EXTT0=
EXTT1=
EXTT2=
EXTT3=
EXTT4=
EXTT5=
EXTT6=
EXTT7=
EXTT8=
EXTT9=
EXTT10=
EXTT11=
EXTT12=
EXTT13=
EXTT14=
EXTT15=
PLAYORDER=
